<?xml version="1.0" encoding="UTF-8"?>
<svg width="160px" height="166px" viewBox="0 0 160 166" version="1.1" xmlns="http://www.w3.org/2000/svg" xmlns:xlink="http://www.w3.org/1999/xlink">
    <title>叠加1</title>
    <defs>
        <linearGradient x1="100%" y1="34.2131726%" x2="32.6773932%" y2="56.0129196%" id="linearGradient-1">
            <stop stop-color="#81E6FF" offset="0%"></stop>
            <stop stop-color="#409EFF" offset="100%"></stop>
        </linearGradient>
        <linearGradient x1="51.3319938%" y1="38.8266499%" x2="52.026403%" y2="59.5118967%" id="linearGradient-2">
            <stop stop-color="#979797" stop-opacity="0" offset="0%"></stop>
            <stop stop-color="#9D9D9D" stop-opacity="0.0225391819" offset="41.4610632%"></stop>
            <stop stop-color="#FFFFFF" stop-opacity="0.380945592" offset="100%"></stop>
        </linearGradient>
        <linearGradient x1="50%" y1="0%" x2="50%" y2="100%" id="linearGradient-3">
            <stop stop-color="#59CCFF" stop-opacity="0.277788496" offset="0%"></stop>
            <stop stop-color="#7DB6FF" stop-opacity="0.6" offset="100%"></stop>
        </linearGradient>
        <linearGradient x1="50%" y1="57.6515577%" x2="50%" y2="104.424262%" id="linearGradient-4">
            <stop stop-color="#FFFFFF" stop-opacity="0" offset="0%"></stop>
            <stop stop-color="#7AD1FF" offset="100%"></stop>
        </linearGradient>
        <linearGradient x1="50%" y1="0%" x2="50%" y2="100%" id="linearGradient-5">
            <stop stop-color="#F267D3" stop-opacity="0.277788496" offset="0%"></stop>
            <stop stop-color="#F267D3" stop-opacity="0.6" offset="100%"></stop>
        </linearGradient>
        <linearGradient x1="50%" y1="58.2192751%" x2="50%" y2="111.97471%" id="linearGradient-6">
            <stop stop-color="#F267D3" stop-opacity="0" offset="0%"></stop>
            <stop stop-color="#F267D3" stop-opacity="0.85" offset="100%"></stop>
        </linearGradient>
    </defs>
    <g id="页面-1" stroke="none" stroke-width="1" fill="none" fill-rule="evenodd">
        <g id="毛玻璃质感图标" transform="translate(-481.000000, -698.000000)">
            <g id="叠加1" transform="translate(481.000000, 698.000000)">
                
                <g id="icon_叠加分析_常态" transform="translate(28.000000, 32.000000)">
                    <rect id="矩形" x="0" y="0" width="102" height="102"></rect>
                    <g id="编组" transform="translate(4.000000, 20.000000)">
                        <path d="M37.486287,25.4905466 C42.8414695,22.7018269 49.220567,22.7018269 54.5757495,25.4905466 L54.5757495,25.4905466 L89.1392927,43.4895657 C90.2414452,44.0635133 91.0066187,45.0298609 91.3527672,46.1282597 C91.6989158,47.2266585 91.6260393,48.4571085 91.0520917,49.559261 C90.594933,50.4371434 89.8610926,51.139813 88.964206,51.558461 L88.964206,51.558461 L53.8559487,67.946266 C48.8961877,70.2613793 43.1658488,70.2613793 38.2060878,67.946266 L38.2060878,67.946266 L3.09783048,51.558461 C1.97181901,51.0328623 1.16544794,50.1006156 0.77197942,49.0182657 C0.378510904,47.9359159 0.397944944,46.7034628 0.923543698,45.5774513 C1.3421917,44.6805648 2.04486135,43.9467244 2.92274378,43.4895657 L2.92274378,43.4895657 Z" id="矩形" stroke="url(#linearGradient-2)" fill="url(#linearGradient-1)"></path>
                        <path d="M37.486287,13.1728162 C42.8414695,10.3840966 49.220567,10.3840966 54.5757495,13.1728162 L54.5757495,13.1728162 L82.0682249,27.4895657 C83.1703774,28.0635133 83.9355509,29.0298609 84.2816994,30.1282597 C84.627848,31.2266585 84.5549715,32.4571085 83.9810239,33.559261 C83.5238652,34.4371434 82.7900248,35.139813 81.8931382,35.558461 L81.8931382,35.558461 L53.8559487,48.6456385 C48.8961877,50.9607518 43.1658488,50.9607518 38.2060878,48.6456385 L38.2060878,48.6456385 L10.1688983,35.558461 C9.04288682,35.0328623 8.23651575,34.1006156 7.84304723,33.0182657 C7.44957872,31.9359159 7.46901276,30.7034628 7.99461151,29.5774513 C8.41325951,28.6805648 9.11592916,27.9467244 9.9938116,27.4895657 L9.9938116,27.4895657 Z" id="矩形备份-5" stroke="url(#linearGradient-4)" fill="url(#linearGradient-3)"></path>
                        <path d="M37.486287,2.59153977 C42.8414695,-0.197179923 49.220567,-0.197179923 54.5757495,2.59153977 L54.5757495,2.59153977 L73.5829435,12.4895657 C74.685096,13.0635133 75.4502695,14.0298609 75.7964181,15.1282597 C76.1425666,16.2266585 76.0696901,17.4571085 75.4957425,18.559261 C75.0385838,19.4371434 74.3047434,20.139813 73.4078569,20.558461 L73.4078569,20.558461 L53.8559487,29.6848855 C48.8961877,31.9999988 43.1658488,31.9999988 38.2060878,29.6848855 L38.2060878,29.6848855 L18.6541797,20.558461 C17.5281682,20.0328623 16.7217971,19.1006156 16.3283286,18.0182657 C15.9348601,16.9359159 15.9542941,15.7034628 16.4798929,14.5774513 C16.8985409,13.6805648 17.6012105,12.9467244 18.479093,12.4895657 L18.479093,12.4895657 Z" id="矩形备份-6" stroke="url(#linearGradient-6)" fill-opacity="0.85" fill="url(#linearGradient-5)"></path>
                    </g>
                </g>
            </g>
        </g>
    </g>
</svg>